<mxfile host="app.diagrams.net" agent="Mozilla/5.0 (Windows NT 10.0; Win64; x64) AppleWebKit/537.36 (KHTML, like Gecko) Chrome/139.0.0.0 Safari/537.36" version="28.1.1">
  <diagram name="Page-1" id="G7XdJN8uYbObtshh9hm1">
    <mxGraphModel grid="1" page="1" gridSize="10" guides="1" tooltips="1" connect="1" arrows="1" fold="1" pageScale="1" pageWidth="850" pageHeight="1100" math="0" shadow="0">
      <root>
        <mxCell id="0" />
        <mxCell id="1" parent="0" />
        <mxCell id="HyKC1uZEEMNYBQ0GEiA3-3" value="PLAN" style="ellipse;whiteSpace=wrap;html=1;aspect=fixed;" vertex="1" parent="1">
          <mxGeometry x="60" y="40" width="110" height="110" as="geometry" />
        </mxCell>
        <mxCell id="HyKC1uZEEMNYBQ0GEiA3-10" value="" style="html=1;shadow=0;dashed=0;align=center;verticalAlign=middle;shape=mxgraph.arrows2.arrow;dy=0.6;dx=40;direction=south;notch=0;" vertex="1" parent="1">
          <mxGeometry x="80" y="150" width="70" height="100" as="geometry" />
        </mxCell>
        <mxCell id="HyKC1uZEEMNYBQ0GEiA3-11" value="Devlop" style="ellipse;whiteSpace=wrap;html=1;" vertex="1" parent="1">
          <mxGeometry x="55" y="250" width="120" height="80" as="geometry" />
        </mxCell>
        <mxCell id="HyKC1uZEEMNYBQ0GEiA3-12" value="" style="html=1;shadow=0;dashed=0;align=center;verticalAlign=middle;shape=mxgraph.arrows2.arrow;dy=0.6;dx=40;direction=south;notch=0;" vertex="1" parent="1">
          <mxGeometry x="80" y="330" width="70" height="100" as="geometry" />
        </mxCell>
        <mxCell id="HyKC1uZEEMNYBQ0GEiA3-13" value="Build" style="ellipse;whiteSpace=wrap;html=1;" vertex="1" parent="1">
          <mxGeometry x="55" y="430" width="120" height="80" as="geometry" />
        </mxCell>
        <mxCell id="HyKC1uZEEMNYBQ0GEiA3-14" value="" style="html=1;shadow=0;dashed=0;align=center;verticalAlign=middle;shape=mxgraph.arrows2.arrow;dy=0.6;dx=40;direction=south;notch=0;" vertex="1" parent="1">
          <mxGeometry x="80" y="510" width="70" height="100" as="geometry" />
        </mxCell>
        <mxCell id="HyKC1uZEEMNYBQ0GEiA3-15" value="Test" style="ellipse;whiteSpace=wrap;html=1;" vertex="1" parent="1">
          <mxGeometry x="60" y="610" width="120" height="80" as="geometry" />
        </mxCell>
        <mxCell id="HyKC1uZEEMNYBQ0GEiA3-16" value="Release" style="ellipse;whiteSpace=wrap;html=1;" vertex="1" parent="1">
          <mxGeometry x="60" y="790" width="120" height="80" as="geometry" />
        </mxCell>
        <mxCell id="HyKC1uZEEMNYBQ0GEiA3-17" value="" style="html=1;shadow=0;dashed=0;align=center;verticalAlign=middle;shape=mxgraph.arrows2.arrow;dy=0.6;dx=40;direction=south;notch=0;" vertex="1" parent="1">
          <mxGeometry x="85" y="690" width="70" height="100" as="geometry" />
        </mxCell>
        <mxCell id="HyKC1uZEEMNYBQ0GEiA3-18" value="" style="html=1;shadow=0;dashed=0;align=center;verticalAlign=middle;shape=mxgraph.arrows2.arrow;dy=0.6;dx=40;direction=south;notch=0;" vertex="1" parent="1">
          <mxGeometry x="85" y="870" width="70" height="100" as="geometry" />
        </mxCell>
        <mxCell id="HyKC1uZEEMNYBQ0GEiA3-19" value="Deploy" style="ellipse;whiteSpace=wrap;html=1;" vertex="1" parent="1">
          <mxGeometry x="60" y="970" width="120" height="80" as="geometry" />
        </mxCell>
        <mxCell id="HyKC1uZEEMNYBQ0GEiA3-23" style="edgeStyle=orthogonalEdgeStyle;rounded=0;orthogonalLoop=1;jettySize=auto;html=1;exitX=0;exitY=0;exitDx=30;exitDy=49;exitPerimeter=0;" edge="1" parent="1" source="HyKC1uZEEMNYBQ0GEiA3-20" target="HyKC1uZEEMNYBQ0GEiA3-22">
          <mxGeometry relative="1" as="geometry" />
        </mxCell>
        <mxCell id="HyKC1uZEEMNYBQ0GEiA3-20" value="" style="html=1;shadow=0;dashed=0;align=center;verticalAlign=middle;shape=mxgraph.arrows2.arrow;dy=0.6;dx=40;direction=south;notch=0;" vertex="1" parent="1">
          <mxGeometry x="85" y="1050" width="70" height="100" as="geometry" />
        </mxCell>
        <mxCell id="HyKC1uZEEMNYBQ0GEiA3-21" value="Operate" style="ellipse;whiteSpace=wrap;html=1;" vertex="1" parent="1">
          <mxGeometry x="70" y="1150" width="120" height="80" as="geometry" />
        </mxCell>
        <mxCell id="HyKC1uZEEMNYBQ0GEiA3-22" value="" style="html=1;shadow=0;dashed=0;align=center;verticalAlign=middle;shape=mxgraph.arrows2.arrow;dy=0.6;dx=40;direction=south;notch=0;" vertex="1" parent="1">
          <mxGeometry x="95" y="1230" width="70" height="100" as="geometry" />
        </mxCell>
        <mxCell id="HyKC1uZEEMNYBQ0GEiA3-24" value="Monitor" style="ellipse;whiteSpace=wrap;html=1;" vertex="1" parent="1">
          <mxGeometry x="80" y="1330" width="120" height="80" as="geometry" />
        </mxCell>
      </root>
    </mxGraphModel>
  </diagram>
</mxfile>
